HIERARCHY
ROOT Hips
{
	OFFSET 0.00 0.00 0.00
	CHANNELS 6 Xposition Yposition Zposition Xrotation Yrotation Zrotation
	JOINT Spine
	{
		OFFSET 0.00000 9.62115 0.00000
		CHANNELS 3 Xrotation Yrotation Zrotation
		JOINT Head
		{
			OFFSET 0.00000 12.77195 0.00000
			CHANNELS 3 Xrotation Yrotation Zrotation
			End Site
			{
				OFFSET 0.00000 4.52755 0.00000
			}
		}
		JOINT LeftShoulder
		{
			OFFSET 0.00000 7.40057 0.00000
			CHANNELS 3 Xrotation Yrotation Zrotation
			JOINT LeftArm
			{
				OFFSET 8.34930 0.00000 0.00000
				CHANNELS 3 Xrotation Yrotation Zrotation
				JOINT LeftForeArm
				{
					OFFSET 11.33484 0.00000 0.00000
					CHANNELS 3 Yrotation Zrotation Xrotation
					JOINT LeftHand
					{
						OFFSET 9.69418 0.00000 0.00000
						CHANNELS 3 Xrotation Yrotation Zrotation
						JOINT LeftHandThumb1
						{
							OFFSET 0.00000 0.00000 0.00000
							CHANNELS 3 Xrotation Zrotation Yrotation
							End Site
							{
								OFFSET 0.00000 0.00000 3.93700
							}
						}
						End Site
						{
							OFFSET 3.93700 0.00000 0.00000
						}
					}
				}
			}
		}
		JOINT RightShoulder
		{
			OFFSET 0.00000 7.40057 0.00000
			CHANNELS 3 Xrotation Yrotation Zrotation
			JOINT RightArm
			{
				OFFSET -8.34930 0.00000 0.00000
				CHANNELS 3 Xrotation Yrotation Zrotation
				JOINT RightForeArm
				{
					OFFSET -11.33484 0.00000 0.00000
					CHANNELS 3 Yrotation Zrotation Xrotation
					JOINT RightHand
					{
						OFFSET -9.69418 0.00000 0.00000
						CHANNELS 3 Xrotation Yrotation Zrotation
						JOINT RightHandThumb1
						{
							OFFSET 0.00000 0.00000 0.00000
							CHANNELS 3 Xrotation Zrotation Yrotation
							End Site
							{
								OFFSET 0.00000 0.00000 3.93700
							}
						}
						End Site
						{
							OFFSET -3.93700 0.00000 0.00000
						}
					}
				}
			}
		}
	}
	JOINT LeftUpLeg
	{
		OFFSET 2.70060 0.00000 0.00000
		CHANNELS 3 Xrotation Yrotation Zrotation
		JOINT LeftLeg
		{
			OFFSET 0.00000 -16.75718 0.00000
			CHANNELS 3 Xrotation Yrotation Zrotation
			JOINT LeftFoot
			{
				OFFSET 0.00000 -16.75915 0.00000
				CHANNELS 3 Xrotation Yrotation Zrotation
				JOINT LeftToeBase
				{
					OFFSET 0.00000 -1.51183 5.64225
					CHANNELS 3 Xrotation Yrotation Zrotation
					End Site
					{
						OFFSET 0.00000 0.00000 2.95275
					}
				}
			}
		}
	}
	JOINT RightUpLeg
	{
		OFFSET -2.70060 0.00000 0.00000
		CHANNELS 3 Xrotation Yrotation Zrotation
		JOINT RightLeg
		{
			OFFSET 0.00000 -16.75718 0.00000
			CHANNELS 3 Xrotation Yrotation Zrotation
			JOINT RightFoot
			{
				OFFSET 0.00000 -16.75915 0.00000
				CHANNELS 3 Xrotation Yrotation Zrotation
				JOINT RightToeBase
				{
					OFFSET 0.00000 -1.51183 5.64225
					CHANNELS 3 Xrotation Yrotation Zrotation
					End Site
					{
						OFFSET 0.00000 0.00000 2.95275
					}
				}
			}
		}
	}
}
MOTION
Frames: 13
Frame Time: 0.008333
 6.8989 37.1501 -10.0029 138.8754 61.7339 -176.2889 21.4905 9.2202 9.1146 25.0910 36.6548 10.8637 -3.8703 6.2034 30.3830 -65.8079 10.6601 -33.2984 -106.8799 -0.0000 -25.6870 -6.4642 7.2478 41.9264 33.1476 -0.0000 26.2537 4.4049 -18.8669 -2.7715 -9.9097 7.1981 66.6046 49.5340 0.0000 22.0371 -5.2112 -20.2974 -14.7306 32.8623 0.0000 -24.3270 -42.5421 27.5118 29.9303 7.2713 -0.0000 -0.0000 -13.9798 35.2992 4.2535 10.4620 -0.0000 0.0000 6.1703 -29.9320 -15.6027 107.2815 0.0000 0.0000 42.3825 -11.8112 25.3309 1.8952 -0.0000 -0.0000
 6.8918 37.1604 -9.9894 138.6711 61.9240 -176.2963 21.5362 9.2087 9.2301 25.2068 36.7781 10.8862 -3.9220 6.2744 30.4588 -65.8938 11.0252 -33.1491 -107.0959 -0.0000 -25.5791 -6.6141 7.3791 42.0765 33.1476 -0.0000 26.2537 4.4862 -18.9682 -2.6995 -10.0163 7.4750 66.5258 49.4885 0.0000 22.1149 -5.1754 -20.4800 -14.5136 32.8623 0.0000 -24.3270 -42.7695 27.4084 30.2373 7.3475 -0.0000 0.0000 -13.9906 35.4038 4.2969 10.4493 0.0000 -0.0000 6.2675 -29.8678 -15.7417 107.4158 -0.0000 -0.0000 42.4880 -11.7821 25.2709 1.8405 -0.0000 -0.0000
 6.8882 37.1696 -9.9767 138.4591 62.1230 -176.2613 21.5850 9.3049 9.2838 25.2158 36.8336 10.9344 -3.9238 6.3667 30.4681 -66.0976 11.2538 -33.0073 -107.2562 -0.0000 -25.5640 -6.7035 7.4902 42.0394 33.1476 -0.0000 26.2537 4.4897 -19.0845 -2.6313 -9.9544 7.6202 66.4476 49.5252 0.0000 22.0493 -5.1841 -20.5659 -14.4815 32.8623 0.0000 -24.3270 -42.9909 27.3658 30.5333 7.4085 -0.0000 0.0000 -14.0032 35.4797 4.3061 10.4576 0.0000 -0.0000 6.3857 -29.7792 -15.8645 107.4852 -0.0000 -0.0000 42.5708 -11.7839 25.2034 1.7547 -0.0000 -0.0000
 6.8854 37.1795 -9.9639 138.2890 62.3143 -176.2760 21.6277 9.3143 9.3491 25.3077 36.9389 11.0172 -3.8820 6.4906 30.5194 -66.2849 11.5214 -32.8378 -107.4296 -0.0000 -25.5535 -6.7855 7.5973 41.9869 33.1476 -0.0000 26.2537 4.5937 -19.0422 -2.5773 -9.9489 7.6698 66.3831 49.4959 0.0000 21.9698 -5.1609 -20.5032 -14.4594 32.8623 0.0000 -24.3270 -43.2077 27.3349 30.8432 7.4645 0.0000 -0.0000 -14.0135 35.5394 4.2599 10.4649 -0.0000 0.0000 6.5651 -29.6916 -15.9241 107.4990 -0.0000 0.0000 42.6105 -11.8417 25.1655 1.7653 -0.0000 -0.0000
 6.8841 37.1875 -9.9520 138.0681 62.4563 -176.2118 21.6350 9.3079 9.3917 25.3588 37.0164 11.0370 -3.8590 6.6097 30.5458 -66.4739 11.7362 -32.6969 -107.5896 -0.0000 -25.5153 -6.8576 7.7113 41.8690 33.1476 -0.0000 26.2537 4.6948 -19.0472 -2.5037 -9.9370 7.7011 66.3092 49.4786 0.0000 21.9327 -5.1246 -20.7503 -14.2045 32.8623 0.0000 -24.3270 -43.4279 27.3217 31.0959 7.4980 -0.0000 0.0000 -13.9959 35.5619 4.2064 10.4556 -0.0000 0.0000 6.7599 -29.6307 -15.9604 107.4266 0.0000 0.0000 42.6667 -11.8874 25.1260 1.7313 -0.0000 0.0000
 6.8839 37.1937 -9.9394 137.8401 62.5512 -176.1182 21.6072 9.3007 9.4259 25.4456 37.0590 11.0271 -3.8326 6.6801 30.5360 -66.6380 11.8823 -32.5243 -107.7318 -0.0000 -25.4383 -6.9478 7.8338 41.7985 33.1476 -0.0000 26.2537 4.7965 -19.0645 -2.4542 -9.8715 7.6850 66.2629 49.4181 0.0000 21.7143 -5.0667 -20.6674 -14.1013 32.8623 0.0000 -24.3270 -43.6657 27.3195 31.3120 7.5581 -0.0000 0.0000 -13.9947 35.5466 4.1394 10.4695 -0.0000 0.0000 6.9808 -29.6233 -15.9726 107.3106 -0.0000 -0.0000 42.6285 -12.0368 25.1176 1.8609 0.0000 -0.0000
 6.8849 37.1998 -9.9282 137.6408 62.6290 -176.0225 21.5827 9.2954 9.4164 25.5060 37.0749 11.0578 -3.8154 6.7421 30.5593 -66.7691 12.0191 -32.3838 -107.8636 -0.0000 -25.3581 -7.0352 7.9440 41.7626 33.1476 -0.0000 26.2537 4.8899 -19.0065 -2.3926 -9.7362 7.6165 66.1493 49.4154 0.0000 21.4143 -4.9982 -20.8089 -13.8303 32.8623 0.0000 -24.3270 -43.8788 27.3499 31.4975 7.5985 -0.0000 -0.0000 -13.9845 35.5225 4.0291 10.5159 -0.0000 -0.0000 7.2336 -29.6323 -15.9699 107.1288 0.0000 0.0000 42.5981 -12.2907 25.3281 1.9789 0.0000 0.0000
 6.8873 37.2058 -9.9172 137.4390 62.6887 -175.9250 21.5567 9.2941 9.4077 25.5391 37.1104 11.0497 -3.8446 6.8016 30.5824 -66.8610 12.1479 -32.2877 -107.9862 -0.0000 -25.2747 -7.0984 8.0584 41.6157 33.1476 -0.0000 26.2537 5.0348 -19.0417 -2.2924 -9.7066 7.6801 66.0395 49.2752 0.0000 21.0345 -5.0391 -20.7960 -13.9474 32.8623 0.0000 -24.3270 -44.0949 27.3701 31.6740 7.6542 -0.0000 0.0000 -13.9644 35.4683 3.9423 10.5279 -0.0000 0.0000 7.5503 -29.5765 -15.8940 106.8362 0.0000 0.0000 42.6255 -12.3335 25.4333 2.0085 -0.0000 0.0000
 6.8898 37.2093 -9.9074 137.2556 62.7136 -175.8023 21.5239 9.2905 9.3470 25.5486 37.1507 11.0827 -3.8256 6.8589 30.6068 -67.0251 12.2803 -32.2156 -108.0952 -0.0000 -25.2655 -7.1115 8.1655 41.2957 33.1476 -0.0000 26.2537 5.0721 -19.1008 -2.2124 -9.6243 7.6413 65.9466 49.1260 0.0000 20.7798 -4.9064 -20.7703 -13.6077 32.8623 0.0000 -24.3270 -44.2670 27.3765 31.7814 7.7161 -0.0000 0.0000 -13.9550 35.4389 3.8379 10.5386 -0.0000 -0.0000 7.8795 -29.5507 -15.8342 106.4630 0.0000 -0.0000 42.7325 -12.3575 25.3964 1.6943 0.0000 0.0000
 6.8934 37.2127 -9.8968 137.0663 62.7366 -175.6673 21.4758 9.3024 9.2743 25.5627 37.2000 11.1023 -3.8969 6.8590 30.6717 -67.0585 12.4279 -32.1817 -108.1938 -0.0000 -25.3075 -7.0842 8.1892 41.1037 33.1476 -0.0000 26.2537 5.1700 -19.1466 -2.1427 -9.5924 7.6132 65.8674 48.9275 0.0000 20.5188 -4.7705 -20.8032 -13.2233 32.8623 0.0000 -24.3270 -44.4246 27.3474 31.8747 7.7975 -0.0000 0.0000 -13.9657 35.4448 3.7356 10.5596 -0.0000 0.0000 8.2378 -29.5045 -15.7217 106.0316 -0.0000 0.0000 42.7157 -12.4750 25.3001 1.6779 0.0000 0.0000
 6.8987 37.2148 -9.8870 136.8912 62.7557 -175.5413 21.4030 9.3186 9.2189 25.6596 37.2273 11.0454 -3.9391 6.8399 30.7069 -67.1020 12.5612 -32.1306 -108.2857 -0.0000 -25.3446 -7.0988 8.2098 41.0918 33.1476 -0.0000 26.2537 5.3094 -19.1823 -2.0717 -9.5984 7.5219 65.7898 48.7602 0.0000 20.2624 -4.7264 -20.9008 -13.0483 32.8623 0.0000 -24.3270 -44.5484 27.2752 31.9481 7.8967 -0.0000 -0.0000 -14.0077 35.4964 3.6696 10.6114 0.0000 -0.0000 8.6388 -29.4445 -15.5572 105.5454 0.0000 0.0000 42.5328 -12.6847 25.3724 1.9133 0.0000 0.0000
 6.9015 37.2151 -9.8789 136.7348 62.7907 -175.4097 21.3510 9.3708 9.1404 25.7173 37.2403 10.9785 -3.9914 6.8254 30.7265 -67.1383 12.6687 -32.0960 -108.3556 -0.0000 -25.2866 -7.1506 8.2728 41.0851 33.1476 -0.0000 26.2537 5.3656 -19.2120 -2.0497 -9.5549 7.4053 65.7292 48.5738 0.0000 20.0403 -4.6663 -20.9347 -12.8678 32.8623 0.0000 -24.3270 -44.6177 27.1602 31.9857 8.0106 0.0000 -0.0000 -14.0905 35.6431 3.5755 10.6916 -0.0000 0.0000 9.0305 -29.3116 -15.4160 104.9572 -0.0000 0.0000 42.6252 -12.6212 25.2692 1.6232 0.0000 0.0000
 6.9032 37.2137 -9.8717 136.5580 62.8416 -175.2453 21.2897 9.4421 9.0497 25.7864 37.2295 10.8742 -4.0858 6.7576 30.7542 -67.1117 12.8357 -32.0511 -108.4301 -0.0000 -25.2453 -7.1508 8.3142 40.9451 33.1476 -0.0000 26.2537 5.4073 -19.2534 -2.0878 -9.5504 7.3472 65.7111 48.2615 0.0000 19.8058 -4.6656 -20.9208 -12.8740 32.8623 0.0000 -24.3270 -44.7191 27.0646 32.0342 8.1619 -0.0000 0.0000 -14.1988 35.7835 3.4767 10.7805 0.0000 -0.0000 9.4520 -29.1473 -15.2397 104.3077 0.0000 -0.0000 42.5770 -12.5202 25.3161 1.5540 -0.0000 0.0000
